<svg xmlns="http://www.w3.org/2000/svg" xmlns:xlink="http://www.w3.org/1999/xlink" version="1.1" x="0px" y="0px" viewBox="0 0 96 120" enable-background="new 0 0 96 96" xml:space="preserve"><path style="fill:rgb(45, 197, 250);" d="M91.25,47.992C91.25,24.153,71.848,4.758,48,4.758S4.75,24.153,4.75,47.992c0,23.848,19.402,43.25,43.25,43.25h43.25v-9.778  H75.373C85.349,73.293,91.25,60.945,91.25,47.992z M37.177,47.998c0,3.694-3.006,6.7-6.7,6.7s-6.7-3.006-6.7-6.7s3.006-6.7,6.7-6.7  S37.177,44.303,37.177,47.998z M48,37.175c-3.694,0-6.7-3.006-6.7-6.7s3.006-6.7,6.7-6.7s6.7,3.006,6.7,6.7S51.694,37.175,48,37.175  z M48,58.82c3.694,0,6.7,3.006,6.7,6.7s-3.006,6.7-6.7,6.7s-6.7-3.006-6.7-6.7S44.306,58.82,48,58.82z M65.523,54.698  c-3.694,0-6.7-3.006-6.7-6.7s3.006-6.7,6.7-6.7s6.7,3.006,6.7,6.7S69.218,54.698,65.523,54.698z"/></svg>