<svg id="Capa_1" enable-background="new 0 0 484.206 484.206" height="512" viewBox="0 0 484.206 484.206" width="512" xmlns="http://www.w3.org/2000/svg"><g><path d="m147.325 123.736c-8.476.032-16.786-2.352-23.956-6.873-11.757 18.656-36.412 24.248-55.068 12.491s-24.248-36.412-12.491-55.068c10.694-16.968 32.316-23.37 50.524-14.959 7.423-15.93 23.416-26.106 40.991-26.081.933 0 1.907.041 2.84.089 5.656-23.386 29.2-37.759 52.586-32.103 10.546 2.551 19.761 8.945 25.841 17.932 17.371-12.173 41.273-8.321 53.94 8.692 15.782-6.124 33.654-3.055 46.488 7.983 19.913-11.897 45.7-5.398 57.597 14.515 3.712 6.214 5.756 13.282 5.932 20.518.886-.047 1.819-.089 2.704-.089 21.683-.016 39.274 17.549 39.289 39.232.016 21.683-17.549 39.274-39.232 39.289-20.371.015-37.37-15.554-39.141-35.848-1.85.269-3.717.403-5.586.402-8.183.011-16.19-2.379-23.029-6.873-8.097 6.396-18.119 9.867-28.437 9.849z" fill="#fed19a"/><path d="m436.914 104.127-62.786 380.073h-264.05l-62.786-380.073z" fill="#eeefee"/><g fill="#ef5261"><path d="m415.302 104.127-54.607 380.073h-25.444l48.401-380.073z"/><path d="m289.997 339.367c10.984-4.192 20.938-10.696 29.187-19.072l-.667 8.916-11.532 154.995h-24.576l7.233-138.225z"/><path d="m335.245 104.127-11.449 153.755-.62 8.515c-7.532-9.391-17.227-16.818-28.254-21.647l.325-6.43 7.009-134.192z"/><path d="m68.904 104.127 54.607 380.073h25.444l-48.402-380.073z"/><path d="m189.208 243.462c-10.798 4.422-20.502 11.144-28.437 19.698l-.59-7.942-11.219-151.092h32.972l6.962 132.993z"/><path d="m201.809 484.206h-24.623l-11.314-152.509-.62-8.267c8.488 7.52 18.357 13.32 29.057 17.077l.307 6.607z"/><path d="m240.709 348.508c5.143.012 10.283-.27 15.394-.844l-.089 6.165-1.423 130.378h-25.331l-1.287-130.153-.089-6.123c4.181.4 8.479.577 12.825.577z"/><path d="m258.766 104.127-1.376 124.166-.047 6.141c-5.52-.664-11.074-.989-16.634-.974-4.724 0-9.448.224-13.977.667l-.047-6.165-1.24-123.853z"/><path d="m323.796 257.881c-8.108-8.37-17.817-15.023-28.55-19.563-12.044-5.254-24.82-8.639-37.885-10.038-5.538-.628-11.107-.939-16.681-.933-4.724 0-9.448.224-14.018.62-12.978 1.174-25.711 4.254-37.791 9.141-10.623 4.169-20.362 10.309-28.703 18.098-10.343 9.078-16.449 22.045-16.858 35.801.758 16.331 9.09 31.373 22.533 40.678 8.681 6.659 18.39 11.858 28.744 15.394 10.779 3.722 21.988 6.061 33.356 6.962 4.169.402 8.432.59 12.731.59 5.112.005 10.221-.262 15.305-.797 11.506-1.127 22.813-3.768 33.628-7.853 10.522-3.882 20.293-9.555 28.88-16.77 11.777-9.261 18.899-23.222 19.486-38.192-.285-12.459-5.363-24.328-14.177-33.138zm-4.612 62.414c-8.25 8.376-18.204 14.88-29.187 19.072-10.86 4.313-22.267 7.096-33.893 8.267-5.111.575-10.251.857-15.394.844-4.346 0-8.651-.177-12.819-.59-11.48-.949-22.777-3.456-33.581-7.452-10.7-3.757-20.569-9.556-29.057-17.077-9.663-8.047-15.458-19.816-15.943-32.382.241-10.381 4.318-20.306 11.443-27.859 7.936-8.554 17.64-15.276 28.437-19.698 11.974-4.987 24.641-8.113 37.56-9.271 4.523-.443 9.229-.667 13.977-.667 5.559-.015 11.114.31 16.634.974 12.994 1.397 25.68 4.872 37.572 10.292 11.028 4.828 20.722 12.256 28.254 21.647 5.563 7.012 8.65 15.667 8.78 24.617-.291 11.053-4.877 21.556-12.783 29.283z"/></g><path d="m252.543 45.126c-1.533.741-2.732 2.031-3.36 3.614-.589 1.635.031 3.461 1.494 4.399.706.314 1.466.487 2.238.508 2.802.669 5.756.031 8.031-1.736 1.286-1.812 1.893-4.02 1.712-6.235l.195-6.129c.326-2.409-.116-4.86-1.264-7.003-1.35-1.505-2.911-2.806-4.635-3.862-4.364-3.502-13.097-4.346-7.186 1.582 4.097 4.098 11.561 10.061 2.775 14.862z" fill="#f4bb87"/><path d="m191.215 33.287c-1.681 1.465-3.58 2.66-5.627 3.543-1.89 1.181-3.448 3.714-2.238 5.592 1.24 1.329 3.089 1.908 4.866 1.523 1.857-.127 3.705-.368 5.533-.72 1.156-.121 2.249-.588 3.135-1.34.888-1.175 1.328-2.628 1.24-4.098l.337-6.123c.372-2.31-.009-4.678-1.086-6.755-5.593-8.291-4.973 6.943-6.16 8.378z" fill="#f4bb87"/><path d="m151.707 61.158c1.644-.203 3.141.966 3.344 2.61.018.149.026.299.021.449-.077 2.167-.236 4.352-.478 6.537.077.828-.531 1.562-1.359 1.639-.178.017-.358.001-.53-.045h-13.758c-.343-3.406.976-6.769 3.543-9.034 2.969-1.104 6.066-1.828 9.217-2.156z" fill="#f4bb87"/><path d="m80.448 79.273c-1.588 1.164-2.526 3.015-2.527 4.984.39 2.905 4.399 4.033 7.003 2.693s7.753-7.877 5.621-11.16c-2.297-3.543-7.871 1.446-10.097 3.483z" fill="#f4bb87"/><path d="m219.015 85.515c-.621 3.016-3.518 4.999-6.554 4.488-1.798-.682-3.145-2.206-3.602-4.074-.443-1.855-.562-3.773-.354-5.669.118-2.303-1.181-7.794-.236-9.093.973-1.328 2.717-1.836 4.251-1.24.862.537 1.589 1.264 2.126 2.126 1.017 1.6 1.943 3.256 2.775 4.96 1.473 2.573 2.035 5.569 1.594 8.502z" fill="#f4bb87"/><path d="m261.914 78.771c-1.778 1.404-2.742 3.599-2.574 5.858.034.496.266.958.644 1.281.419.233.9.328 1.376.272l7.399-.112c1.457-.095 2.615-1.259 2.704-2.716.756-5.232 9.276-9.737 7.475-11.597-2.499-2.587-15.288 5.491-17.024 7.014z" fill="#f4bb87"/><path d="m316.503 64.021c.111.697-.036 1.411-.413 2.008-.432.467-1.02.761-1.653.827-4.2.955-8.563.935-12.754-.059-1.417-.354-3.011-1.122-3.07-2.539.037-.642.263-1.258.65-1.771 2.887-4.199 5.434-8.622 7.617-13.227 1.685-.59 3.486-.772 5.255-.531.535.023 1.049.209 1.476.531.435.456.722 1.032.827 1.653 1.189 4.275 1.882 8.674 2.065 13.108z" fill="#f4bb87"/><path d="m357.069 56.227c-.05 2.437-.996 4.77-2.657 6.554-1.335 1.981-3.472 3.277-5.846 3.543-2.443.139-4.645-1.468-5.255-3.838-.413-2.48 1.771-4.488 3.248-6.554 5.243-7.304 9.506-3.023 10.51.295z" fill="#f4bb87"/><path d="m372.422 87.463c-2.006.989-3.873 2.24-5.551 3.72-1.063 1.299-2.126 3.248-3.779 2.893-.804-.256-1.467-.833-1.83-1.594-1.991-3.286-.941-7.563 2.345-9.554.731-.443 1.538-.747 2.379-.898 8.484-2.178 8.266 4.134 6.436 5.433z" fill="#f4bb87"/></g></svg>